<svg xmlns="http://www.w3.org/2000/svg" width="744.993" height="467.857" viewBox="0 0 744.993 467.857">
  <g id="Groupe_24" data-name="Groupe 24" transform="translate(-1852 -1866)">
    <g id="undraw_having_fun_iais_1_" data-name="undraw_having_fun_iais (1)" transform="translate(1852 1866)">
      <path id="Tracé_1" data-name="Tracé 1" d="M773.945,480.6c-7.475,17.976-23.115,34.213-39.9,49.589q-22.137,20.279-47.358,39.194-6.99,5.25-14.2,10.369l-3.341,2.356q-4.443,3.144-9.037,6.228l-.367.249q-4.456,3.032-8.991,6.005a246.424,246.424,0,0,1-31.9,18.291c-3.938,1.825-8,3.524-12.207,5.047q-3.413,1.24-6.97,2.323c-3.885,1.181-7.876,2.212-12.043,3.058-.7.144-1.4.282-2.1.414-4.266.8-8.584,1.385-12.949,1.785-15.994,1.464-32.513.394-48.533-2.113-8.007-1.253-15.889-2.868-23.515-4.706-.938-.223-1.87-.453-2.809-.656-25.969-6.5-50.351-15.318-76.5-21.52q-13.52-3.209-27.564-5.447-6.852-1.089-13.782-1.969c-10.875-1.352-21.887-2.258-32.946-2.717-14.911-.656-30.308-.374-44.5,2.231q-2.835.519-5.6,1.168-3.5.82-6.878,1.87a122.453,122.453,0,0,0-17.648,7.265c-1.122.551-2.231,1.109-3.341,1.674h0c-3.478,1.772-6.911,3.583-10.4,5.342a131.216,131.216,0,0,1-19.518,8.282,103.35,103.35,0,0,1-11.209,2.861,165.163,165.163,0,0,1-31.4,2.855c-5.165,0-10.337-.112-15.449-.381h-.158c-1.746-.092-3.5-.2-5.25-.328-7.98-.545-15.935-1.385-23.771-2.533-26.849-3.938-52.313-11.38-72.8-22.734-27.82-15.41-45.488-38.386-42.836-61.343,1.9-16.539,13.723-31.9,24.939-46.931,20.863-28,40.408-56.631,50.692-86.814,8.341-24.5,10.829-50.4,30.025-72.422a100.633,100.633,0,0,1,23.167-19.118,147.93,147.93,0,0,1,21.448-10.842,185.375,185.375,0,0,1,25.851-8.433,205.719,205.719,0,0,1,23.18-4.358c4.24-.551,8.532-.978,12.85-1.267q4.988-.348,10.022-.44h.518q3.078-.059,6.156,0a286.844,286.844,0,0,1,44.628,4.194c9.227,1.542,18.376,3.432,27.334,5.513q8.02,1.857,15.9,3.892c1.6.413,3.2.833,4.784,1.26,37.356,10.008,70.223,23.83,106.214,35.171.184.059.361.118.545.164h0a221.732,221.732,0,0,0,22.471,5.644q8.358,1.674,17.064,2.927c8.873,1.313,17.936,2.349,27.065,3.242l2.015.2c13.395,1.313,26.908,2.29,40.034,3.432,4.66.407,9.28.827,13.835,1.313q4.332.433,8.584.919c2.034.236,4.076.473,6.117.722s4.2.512,6.3.781c1.365.171,2.724.348,4.089.538,8.269,1.1,16.519,2.323,24.677,3.728,4.962.853,9.9,1.772,14.773,2.763q5.3,1.076,10.5,2.271,3.859.873,7.652,1.838c20.548,5.165,39.778,11.938,56.349,21.08C768.991,407.257,788.246,446.221,773.945,480.6Z" transform="translate(-33.623 -158.313)" fill="#f7946d" opacity="0.1"/>
      <circle id="Ellipse_1" data-name="Ellipse 1" cx="14.196" cy="14.196" r="14.196" transform="translate(149.214 30.938)" fill="#f7946d" opacity="0.1"/>
      <circle id="Ellipse_2" data-name="Ellipse 2" cx="14.196" cy="14.196" r="14.196" transform="translate(439.367 0)" fill="#f7946d" opacity="0.1"/>
      <circle id="Ellipse_3" data-name="Ellipse 3" cx="14.196" cy="14.196" r="14.196" transform="translate(611.414 31.791)" fill="#f7946d" opacity="0.1"/>
      <circle id="Ellipse_4" data-name="Ellipse 4" cx="23.791" cy="23.791" r="23.791" transform="translate(0 55.686)" fill="#f7946d" opacity="0.1"/>
      <circle id="Ellipse_5" data-name="Ellipse 5" cx="23.791" cy="23.791" r="23.791" transform="translate(22.806 173.162)" fill="#f7946d" opacity="0.1"/>
      <circle id="Ellipse_6" data-name="Ellipse 6" cx="23.791" cy="23.791" r="23.791" transform="translate(661.325 129.919)" fill="#f7946d" opacity="0.1"/>
      <path id="Tracé_2" data-name="Tracé 2" d="M371.391,322.923a25.6,25.6,0,0,1-.348,5.972c-1.313,6.1-6.865,10.284-12.24,13.461s-11.282,6.182-14.478,11.544c-3.852,6.478-2.625,15.187,1.9,21.238s11.688,9.654,19.065,11.157a44.143,44.143,0,0,0,38.275-10.442,41.738,41.738,0,0,0,12.673-37.409c-5.473.768-10.35-4.062-12.122-9.3s-1.4-10.914-2.094-16.407a5.63,5.63,0,0,0-.814-2.625,5.9,5.9,0,0,0-3.393-1.844c-6.327-1.739-16.972-5.546-23.528-4.089C368.379,305.532,371.293,317.962,371.391,322.923Z" transform="translate(-138.834 -165.84)" fill="#be6f72"/>
      <path id="Tracé_3" data-name="Tracé 3" d="M371.391,322.923a25.6,25.6,0,0,1-.348,5.972c-1.313,6.1-6.865,10.284-12.24,13.461s-11.282,6.182-14.478,11.544c-3.852,6.478-2.625,15.187,1.9,21.238s11.688,9.654,19.065,11.157a44.143,44.143,0,0,0,38.275-10.442,41.738,41.738,0,0,0,12.673-37.409c-5.473.768-10.35-4.062-12.122-9.3s-1.4-10.914-2.094-16.407a5.63,5.63,0,0,0-.814-2.625,5.9,5.9,0,0,0-3.393-1.844c-6.327-1.739-16.972-5.546-23.528-4.089C368.379,305.532,371.293,317.962,371.391,322.923Z" transform="translate(-138.834 -165.84)" opacity="0.1"/>
      <path id="Tracé_4" data-name="Tracé 4" d="M358.866,761.531a131.213,131.213,0,0,1-19.518,8.282,103.337,103.337,0,0,1-11.209,2.861,70.555,70.555,0,0,1,.82-15.095,80.348,80.348,0,0,0,1.464-8.617,22.6,22.6,0,0,0-2.592-12.1c7.311-1,14.255-2.625,21.6-2.146l.466.033a8.191,8.191,0,0,1,2.56.479,6.912,6.912,0,0,1,2.776,2.441,16.821,16.821,0,0,1,1.044,1.608,25.594,25.594,0,0,1,3.026,11.977A79.671,79.671,0,0,1,358.866,761.531Z" transform="translate(-133.955 -313.901)" fill="#be6f72"/>
      <path id="Tracé_5" data-name="Tracé 5" d="M420.3,750.129q-3.5.82-6.878,1.87a122.459,122.459,0,0,0-17.648,7.265,26.047,26.047,0,0,1-.538-5.434,30.347,30.347,0,0,1,23.2-4.771,3.064,3.064,0,0,1,1.47.591,1.972,1.972,0,0,1,.394.479Z" transform="translate(-157.124 -318.657)" fill="#be6f72"/>
      <path id="Tracé_6" data-name="Tracé 6" d="M400.942,659.506a50.391,50.391,0,0,1-2.625,12.634c-1.647,4.332-4.325,8.532-3.984,13.159.151,2.008.834,4.187.932,6.176q-2.835.519-5.6,1.168-3.5.82-6.878,1.87a122.459,122.459,0,0,0-17.648,7.265c-1.122.551-2.231,1.109-3.341,1.674h0c-.459-.059-.912-.131-1.372-.216-3.281-.6-6.734-2.067-8.591-4.693a7.535,7.535,0,0,1-.991-1.969c-1.07-3.2.046-7.18-2.179-9.713l-.1.092-.079.053a22.036,22.036,0,0,1-3.99,2.875h0a26.743,26.743,0,0,1-21.658,2.087,23.725,23.725,0,0,1-4.062-1.825c-3.006-1.713-5.907-4.594-5.67-8.033.131-1.916,1.227-3.754.932-5.651a11.822,11.822,0,0,0-1.779-3.688c-4.391-7.876.847-18-1.91-26.56-.066-.2-.138-.407-.21-.6-.2-.558-.433-1.1-.656-1.634-.564-1.253-1.194-2.487-1.693-3.774a21.977,21.977,0,0,1-.984-3.327,41.651,41.651,0,0,1-.656-9.989,104.49,104.49,0,0,1,3.82-26.33c.4-1.51.847-3.642,1.437-5.966h0a45.674,45.674,0,0,1,2.323-7.167c1.313-3.019,3.1-5.427,5.539-6,3.675-.86,9.293.958,13.021,1.4l14.734,1.759,29.461,3.524c5.086.61,10.428,1.313,14.622,4.174.276.19.545.387.814.6a16.631,16.631,0,0,1,2.953,3.006c.3.387.591.794.866,1.208a27.3,27.3,0,0,1,2.428,4.634c3.656,8.781,3.741,18.58,3.767,28.089C401.933,639.739,401.966,649.655,400.942,659.506Z" transform="translate(-126.481 -261.164)" fill="#3f3d56"/>
      <path id="Tracé_7" data-name="Tracé 7" d="M361.429,720.24c-.886-3.413-2.756-8.355-3.032-9.7a123.084,123.084,0,0,1-2.008-13.664c-.728-8.177-2.041-19.689.847-27.466,2.71,1.444,5.093,5.533,6.346,8.322,4.542,10.114-.571,22.531,3.695,32.762a5.4,5.4,0,0,1,.584,1.969,4.765,4.765,0,0,1-.906,2.415l-1.437,2.389Z" transform="translate(-143.449 -291.485)" opacity="0.1"/>
      <path id="Tracé_8" data-name="Tracé 8" d="M497.943,237.942c4.83-7.875,11.446-15.62,11.032-24.827-.151-3.281-1.227-6.491-2.048-9.707A61.928,61.928,0,0,1,506.474,175a32.086,32.086,0,0,1,23.206,5.2,13.245,13.245,0,0,1,5.126,5.762c.873,2.245.729,4.745.571,7.147-.361,5.519-.853,11.406-4.253,15.751-1.057,1.359-2.356,2.507-3.386,3.879a25.114,25.114,0,0,0-3.242,6.714L513.339,249.8c-5.631,15.3-11.734,31.3-24.138,41.885-.3.256-9.188-12.365-9.923-13.631-2.973-5.191-1.674-7.383,1.923-11.728C488.3,257.736,492.147,247.373,497.943,237.942Z" transform="translate(-185.443 -121.411)" fill="#be6f72"/>
      <path id="Tracé_9" data-name="Tracé 9" d="M291.374,665.33a50.409,50.409,0,0,1-.571,6.766c-.118.827-.256,1.647-.42,2.468-2.238,11.682-7.81,22.793-11.708,34.173-5.139,15.022-7.4,28.056-9.188,42.974-5.165,0-10.337-.111-15.449-.381h-.158c-1.746-.092-3.5-.2-5.25-.328,1.582-13.913-1.313-28.509,1.516-42.436,1.142-5.6,3.091-11.045,4.266-16.624a47.049,47.049,0,0,0,.82-4.975,13.344,13.344,0,0,1,.965-4.666,3.436,3.436,0,0,1,.223-.4,11.244,11.244,0,0,1,2.31-2.625A57.642,57.642,0,0,1,286.99,665.8C288.48,665.6,289.93,665.428,291.374,665.33Z" transform="translate(-106.733 -290.083)" fill="#fbbebe"/>
      <path id="Tracé_10" data-name="Tracé 10" d="M291.374,665.33a50.409,50.409,0,0,1-.571,6.766c-.118.827-.256,1.647-.42,2.468-2.238,11.682-7.81,22.793-11.708,34.173-5.139,15.022-7.4,28.056-9.188,42.974-5.165,0-10.337-.111-15.449-.381h-.158c-1.746-.092-3.5-.2-5.25-.328,1.582-13.913-1.313-28.509,1.516-42.436,1.142-5.6,3.091-11.045,4.266-16.624a47.049,47.049,0,0,0,.82-4.975,13.344,13.344,0,0,1,.965-4.666,3.436,3.436,0,0,1,.223-.4,11.244,11.244,0,0,1,2.31-2.625A57.642,57.642,0,0,1,286.99,665.8C288.48,665.6,289.93,665.428,291.374,665.33Z" transform="translate(-106.733 -290.083)" opacity="0.1"/>
      <path id="Tracé_11" data-name="Tracé 11" d="M239.358,698.888a102.831,102.831,0,0,1-.9,10.9c-1.752,14.773-2.08,30.19-3.281,45.186-1.746-.092-3.5-.2-5.25-.328-7.98-.545-15.935-1.385-23.771-2.533q.906-5.067,1.824-10.133a54.869,54.869,0,0,0,1.28-12.522c-.2-3.97-1.267-7.836-2.113-11.728-1.8-8.335-2.816-17.326-5.789-25.189a32.816,32.816,0,0,0-7.259-11.813c12.3-4.83,24.119-5.106,37.33-4.594a4.733,4.733,0,0,1,2.678.656,4.53,4.53,0,0,1,1.345,2.035,50.908,50.908,0,0,1,3.695,14.977A49.128,49.128,0,0,1,239.358,698.888Z" transform="translate(-87.991 -293.733)" fill="#fbbebe"/>
      <circle id="Ellipse_7" data-name="Ellipse 7" cx="25.595" cy="25.595" r="25.595" transform="translate(224.839 102.506)" fill="#be6f72"/>
      <path id="Tracé_12" data-name="Tracé 12" d="M385.085,372.333c3.281-5.6,6.156-12.588,12.47-14.143,3.564-.886,7.272.322,10.743,1.509a5.25,5.25,0,0,1,2.625,1.523,5.159,5.159,0,0,1,.794,2.717,177.893,177.893,0,0,1-.112,34.783c-.833,8.184-2.238,16.328-2.487,24.552-.348,11.4,1.529,22.8.912,34.186-.466,8.63-2.356,17.109-4.233,25.543l-7.876,35.309a6.018,6.018,0,0,1-1.267,2.986,5.906,5.906,0,0,1-2.323,1.313,86.473,86.473,0,0,1-69.98-5.48c-2.842-1.562-5.677-3.367-7.528-6.031-2.625-3.78-2.868-8.781-2.015-13.31s2.7-8.8,3.938-13.244c1.916-6.891,2.369-14.084,2.8-21.224.578-9.4,1.155-18.855.151-28.22-.689-6.451-2.126-12.8-3.209-19.2a211.8,211.8,0,0,1-2.77-29.159c-.164-5.834.105-12.312,4.141-16.519a19.025,19.025,0,0,1,7.265-4.279c4.482-1.654,9.49-2.625,14.018-1.116s8.177,6.261,7.108,10.914c-.492,2.159-1.89,4.049-2.231,6.241-.453,2.9,1.083,5.821,3.281,7.784C361.13,400.449,379.185,382.466,385.085,372.333Z" transform="translate(-129.328 -184.411)" fill="#e3e8f4"/>
      <path id="Tracé_13" data-name="Tracé 13" d="M413.011,327.419a19.354,19.354,0,0,1,11.216-.656c2.369.564,4.929,1.562,7.114.505.794-.381,1.45-1,2.251-1.358,2.166-.952,4.975.217,6.891-1.168,1.208-.873,1.6-2.461,2.008-3.9a35.013,35.013,0,0,1,11.57-17.536c-.689,5.034-1.188,10.763,2.139,14.609A14.586,14.586,0,0,0,462,321.6c3.091,1.227,6.484,2.041,9.746,1.372s6.314-3.137,6.832-6.425c-.112,4.942-4.817,8.394-6.136,13.165-.5,1.785-.453,3.682-.8,5.506-.886,4.66-4.213,8.4-7.121,12.154a86.473,86.473,0,0,0-17.195,41.491,20.016,20.016,0,0,1-1.116,5.25,33.019,33.019,0,0,1-2.179,3.754c-4.811,8.125-3.327,18.376-1.693,27.656,2.553,14.537,5.1,28.778,9.234,42.948.709,2.422,1.509,4.948,3.314,6.714-.571,5.729-6.353,8.341-11.551,10.816a56.663,56.663,0,0,0-14.045,9.51,11.068,11.068,0,0,0-3.518,4.889c-.512,1.844-.144,3.872-.8,5.664s-3.281,3.078-4.437,1.569c-1.444-5.4,1.024-11.052.912-16.644-.079-3.774-1.313-7.442-1.49-11.216-.171-4.272,1.089-8.466,2.428-12.522,3.728-11.295,8.23-22.485,9.523-34.3s-1.122-24.729-9.51-33.162c-9.956-10.054-15.482-23.685-26.153-32.919-1.693-1.464-3.61-3.281-3.327-5.5a6.124,6.124,0,0,1,1.254-2.665c3.662-5.172,8.532-9.391,12.47-14.34S413.726,333.719,413.011,327.419Z" transform="translate(-156.316 -165.65)" fill="#3f3d56"/>
      <path id="Tracé_14" data-name="Tracé 14" d="M347.362,355.425a19.182,19.182,0,0,1-1.87,2.126,6.17,6.17,0,0,1-2.947.912,95.271,95.271,0,0,1-11.662,1.044c-3.281,0-6.688-.289-9.844.61-4.4,1.247-7.921,4.725-10.127,8.729s-3.249,8.532-4.1,13.04A174.4,174.4,0,0,0,303.83,412a79.207,79.207,0,0,0,14.34-14.885c3.15-4.272,6.005-9,10.5-11.853,2.067-1.313,4.391-2.179,6.471-3.459,4.338-2.671,7.344-6.99,10.232-11.157,2.126-3.091,8.276-9.129,8.761-12.831C354.548,354.283,349.659,352.557,347.362,355.425Z" transform="translate(-125.706 -183.069)" fill="#3f3d56"/>
      <path id="Tracé_15" data-name="Tracé 15" d="M389.354,250.56a20.747,20.747,0,0,1,2.323,1.621c4.456,3.111,10.422,2.533,15.81,1.824a11.867,11.867,0,0,0,4.771-1.313,7.458,7.458,0,0,0,3.124-6.963,13.862,13.862,0,0,0-3.209-7.219,25.969,25.969,0,0,0-17.95-9.792,11.55,11.55,0,0,0-5.375.571c-2.12.873-3.715,2.671-5.67,3.872-5.769,3.544-14.655,1.969-18.376,7.626-2.724,4.174-.781,9.844-2.067,14.642-.958,3.583-3.721,6.845-3.19,10.5.3,1.969,1.529,3.688,2.514,5.447a24.073,24.073,0,0,1,3.012,13.277c2.527,1.785,6.051-.991,6.753-4s-.1-6.209.492-9.241c1.057-5.322,5.756-9.227,7.876-14.11C381.714,253.809,384.2,247.9,389.354,250.56Z" transform="translate(-144.833 -139.982)" fill="#3f3d56"/>
      <path id="Tracé_16" data-name="Tracé 16" d="M295.664,339.914a4.946,4.946,0,0,0,.341,3.524c1.313,1.969,4.318,1.26,6.681,1.555,3.682.453,6.4,3.938,7.114,7.6s-.138,7.39-1.07,10.986q-3.163,12.227-7.534,24.106c-7.836-.925-16.086-3.938-20.247-10.625-3.78-6.084-3.393-13.835-5.8-20.581-1.687-4.752-4.712-8.886-7.7-12.942,4.811.6,8.25-4.9,8.532-9.739s-1.24-9.759-.2-14.491c.243-1.122,19.2,2.415,21.047,3.695C302.155,326.7,296.5,334.782,295.664,339.914Z" transform="translate(-113.202 -171.077)" fill="#fbbebe"/>
      <path id="Tracé_17" data-name="Tracé 17" d="M295.664,339.914a4.946,4.946,0,0,0,.341,3.524c1.313,1.969,4.318,1.26,6.681,1.555,3.682.453,6.4,3.938,7.114,7.6s-.138,7.39-1.07,10.986q-3.163,12.227-7.534,24.106c-7.836-.925-16.086-3.938-20.247-10.625-3.78-6.084-3.393-13.835-5.8-20.581-1.687-4.752-4.712-8.886-7.7-12.942,4.811.6,8.25-4.9,8.532-9.739s-1.24-9.759-.2-14.491c.243-1.122,19.2,2.415,21.047,3.695C302.155,326.7,296.5,334.782,295.664,339.914Z" transform="translate(-113.202 -171.077)" opacity="0.1"/>
      <circle id="Ellipse_8" data-name="Ellipse 8" cx="25.595" cy="25.595" r="25.595" transform="translate(152.647 109.725)" fill="#fbbebe"/>
      <path id="Tracé_18" data-name="Tracé 18" d="M258.994,310.9c.932-1.457-.656-3.491.072-5.06.433-.945,1.529-1.352,2.376-1.969a8.854,8.854,0,0,0,2.474-3.209,37.3,37.3,0,0,0,3.413-24.906c-.6-2.835-1.142-6.6,1.45-7.875a4.705,4.705,0,0,1,2.29-.394c4.673.151,9.188,3.281,13.723,2.172a7.876,7.876,0,0,0,5.775-6.871c.3-4.24-2.881-7.875-6.005-10.73-5.624-5.172-14.2-6.32-21.835-6.445l-14.209-.236c-4.548-.079-9.647.066-12.811,3.327-4.555,4.692-2.264,12.371-2.921,18.875a19.688,19.688,0,0,1-7.219,13.224c-2.947,2.35-7,4.594-6.95,8.348a13.574,13.574,0,0,0,.925,3.747c1.45,4.909.066,10.337-2.717,14.635s-6.852,7.606-11.072,10.5a30.863,30.863,0,0,0-6.379,5.119,15.1,15.1,0,0,0-3.327,8.486,11.157,11.157,0,0,0,1.391,6.845c2.776,4.437,9.437,5.086,14,2.514s7.344-7.442,9.188-12.338c1.1-2.907,2.225-6.235,5.047-7.541,3.57-1.66,7.744.965,10.068,4.148s3.754,7.068,6.727,9.654a12.015,12.015,0,0,0,16.525-1.365c2.815-3.419,3.439-8.151,3.281-12.581a18.33,18.33,0,0,0-3.281-10.074Z" transform="translate(-88.634 -145.735)" fill="#3f3d56"/>
      <path id="Tracé_19" data-name="Tracé 19" d="M248.792,376.566c-2.921.623-5.972-.755-8.145-2.815a32.344,32.344,0,0,1-5.158-7.291,128.369,128.369,0,0,0-13.224-18.337c-4.305-4.968-10.3-10.015-16.689-8.479a15.837,15.837,0,0,0-5.828,3.117,42.488,42.488,0,0,0-15.863,37.921c.5,4.181,1.634,8.269,2.107,12.47a79.922,79.922,0,0,1,.276,10.415c-.177,10.579-.538,21.769-6.241,30.682-8.84,13.782-13.572,30.242-20.063,45.284-3.5,8.131-5.6,16.788-7.665,25.4q-1.831,7.666-3.656,15.324L140.7,553.66c-.82,3.445-1.641,7.055-.774,10.5,1.313,5.145,6.149,8.742,11.249,10.205s10.5,1.214,15.8,1.26c10.133.1,20.345,1.359,29.855,4.876,2.717,1,5.428,2.205,8.322,2.441a19.361,19.361,0,0,0,8.486-1.569c7.4-2.861,13.736-7.875,20.548-11.925a81.21,81.21,0,0,1,13.388-6.478c2.336-.873,4.843-1.7,6.451-3.61a11.659,11.659,0,0,0,2.159-5.152c2.218-10.343.728-21.06,0-31.614s-7.035-21.7-1.818-30.9a24.755,24.755,0,0,0,2.842-5.7c.709-2.691.112-5.585.709-8.3a42.955,42.955,0,0,1,2.218-5.736,30.239,30.239,0,0,0,1.418-10.691,117.312,117.312,0,0,0-2.494-23.626c-2.067-9.844,4.771-19.577,8.689-28.877,1.4-3.327,3.393-6.471,3.977-10.035.525-3.216-.151-6.491-.656-9.713a84.993,84.993,0,0,1-.919-15.095c.125-4.528.6-9.142-.479-13.546s-4.174-8.676-8.617-9.582a3.518,3.518,0,0,0-2.966.466,3.839,3.839,0,0,0-1.044,1.838c-1.444,4.423-1.162,9.188-1.969,13.782S253.32,375.595,248.792,376.566Z" transform="translate(-69.244 -178.045)" fill="#f86d70"/>
      <path id="Tracé_20" data-name="Tracé 20" d="M204.871,436.817c.269-1.818-.578-4.233-2.415-4.167-1.693.066-2.448,2.185-2.441,3.885s.236,3.649-.965,4.843c-1.063,1.057-2.822,1.024-4.056,1.884A3.334,3.334,0,0,0,193.6,446c0,.912.413,1.785.44,2.7s-.584,1.969-1.49,1.91a4.115,4.115,0,0,0,.6,4.988c.473.459,1.089.853,1.247,1.5a3.609,3.609,0,0,1-.1,1.345,3.523,3.523,0,0,0,2.789,4.023c-1.017.728-.814,2.435.118,3.281a5.133,5.133,0,0,0,3.524,1.011,21.421,21.421,0,0,0,8.276-1.713,4.936,4.936,0,0,0,2.284-1.575,1.969,1.969,0,0,0-.19-2.546c1.273.21,2.8.328,3.636-.656,1.162-1.378-.085-3.419-1.313-4.752a2.625,2.625,0,0,0,1.221-4.673c-.42-.309-.991-.578-1.05-1.1s.381-.853.564-1.313c.42-1.03-.538-2.08-1.463-2.7-2.192-1.457-5.421-1.431-7.37-2.9S204.589,438.786,204.871,436.817Z" transform="translate(-87.257 -210.108)" fill="#be6f72"/>
      <path id="Tracé_25" data-name="Tracé 25" d="M791.226,299.826a20.029,20.029,0,0,1,.847,8.072c-.171,3.321-1,7.219-4.089,8.486-2.008.807-4.489.2-6.274,1.418-2.166,1.47-2.061,4.633-1.726,7.219.925,7.108,1.969,14.478,5.841,20.489a43.517,43.517,0,0,0,7.751,8.473c5.69,5.132,11.931,10.146,19.406,11.859a8.119,8.119,0,0,0,3.741.157,7.745,7.745,0,0,0,3.236-1.969c4.331-3.977,6.563-9.654,9.45-14.8,2.041-3.682,4.476-7.219,5.624-11.275a19.688,19.688,0,0,0-6.025-19.866c-1.28-1.1-2.7-2.015-3.938-3.15a20.2,20.2,0,0,1-5.907-11.465,50.179,50.179,0,0,1-.282-13.126,71.42,71.42,0,0,0-19.485,1.569c-2.848.571-6.858.833-9.437,2.192C787.058,295.652,790.432,297.628,791.226,299.826Z" transform="translate(-289.301 -161.145)" fill="#fbbebe"/>
      <path id="Tracé_26" data-name="Tracé 26" d="M791.226,299.826a20.029,20.029,0,0,1,.847,8.072c-.171,3.321-1,7.219-4.089,8.486-2.008.807-4.489.2-6.274,1.418-2.166,1.47-2.061,4.633-1.726,7.219.925,7.108,1.969,14.478,5.841,20.489a43.517,43.517,0,0,0,7.751,8.473c5.69,5.132,11.931,10.146,19.406,11.859a8.119,8.119,0,0,0,3.741.157,7.745,7.745,0,0,0,3.236-1.969c4.331-3.977,6.563-9.654,9.45-14.8,2.041-3.682,4.476-7.219,5.624-11.275a19.688,19.688,0,0,0-6.025-19.866c-1.28-1.1-2.7-2.015-3.938-3.15a20.2,20.2,0,0,1-5.907-11.465,50.179,50.179,0,0,1-.282-13.126,71.42,71.42,0,0,0-19.485,1.569c-2.848.571-6.858.833-9.437,2.192C787.058,295.652,790.432,297.628,791.226,299.826Z" transform="translate(-289.301 -161.145)" opacity="0.1"/>
      <path id="Tracé_27" data-name="Tracé 27" d="M681.374,268.4c-10.658-3.656-15.751-17.936-26.908-19.538-1.759-.256-3.564-.158-5.29-.564-6.425-1.523-9.188-8.952-11.045-15.285-6.261-21.113-14.438-41.773-26.055-60.49-4.9-7.876-12.653-14.347-16.191-22.97-.814-1.969-1.227-4.213-2.691-5.769s-4.594-1.779-5.388.2a4.6,4.6,0,0,0-.144,2.172l.768,8.171-13.349-1.2a7.8,7.8,0,0,0-3.695.263,6.268,6.268,0,0,0-2.907,3.026c-4.515,8.486.3,19.6,8.263,24.972,9.306,6.268,22.6,7.219,28.778,16.571,3.675,5.565,3.747,12.725,6.169,18.941,1.155,2.973,2.842,5.7,4.187,8.584,2.566,5.493,3.879,11.465,5.867,17.188,2.848,8.184,7.068,15.81,11.275,23.39,3.242,5.854,6.563,11.813,11.551,16.289a56.8,56.8,0,0,0,11,7.219c9.49,5.185,20.68,10.173,30.734,6.2C686.88,286.8,684.629,276.8,681.374,268.4Z" transform="translate(-216.07 -110.4)" fill="#fbbebe"/>
      <path id="Tracé_28" data-name="Tracé 28" d="M773.153,749.682c-.807,8.565-6.005,16.322-7.219,24.565-8.007-1.253-15.889-2.868-23.515-4.706-.938-.223-1.87-.453-2.809-.656,4.318-11.813.558-25.044,1.7-37.625.112-1.208.269-2.415.479-3.61,9.89-3.373,18.822-7.876,29.192-6.563.2,2.1.413,4.207.617,6.307q.623,6.294,1.234,12.575A50.993,50.993,0,0,1,773.153,749.682Z" transform="translate(-275.488 -309.167)" fill="#fbbebe"/>
      <path id="Tracé_29" data-name="Tracé 29" d="M876.784,770.986c-3.885,1.181-7.875,2.212-12.043,3.058-.7.144-1.4.282-2.1.413-4.266.8-8.584,1.385-12.949,1.785-.446-9.122-6.563-17.51-7.455-26.875a39.478,39.478,0,0,1,.072-6.99c.079-.919.171-1.838.256-2.756l1.851-18.881a29.129,29.129,0,0,1,4.443-.217c8.532.2,16.3,3.9,24.749,6.78a59,59,0,0,1,.656,12.049c-.322,10.251-1.969,20.627,1.838,30.032C876.318,769.917,876.554,770.448,876.784,770.986Z" transform="translate(-310.72 -309.049)" fill="#fbbebe"/>
      <path id="Tracé_30" data-name="Tracé 30" d="M721.861,577.807c1.148,8.952-3.426,17.523-5.408,26.324-1.313,5.821-1.49,11.813-1.667,17.786l-1.037,35.774c-.105,3.577-.2,7.219.893,10.652,2.192,6.878,8.945,11.524,15.974,13.178s14.379.814,21.539-.131c3.511-.466,7.173-1.011,10.081-3.039,4-2.789,5.743-7.757,7.252-12.391l4.259-13.08c4.9,11.039,2.829,23.108,5.769,34.823a6.746,6.746,0,0,0,1.313,2.973c1.24,1.378,3.281,1.595,5.139,1.726,12.863.906,25.9,1.8,38.557-.656,3.478-.656,7.108-1.719,9.51-4.331,2.8-3.039,3.281-7.508,3.249-11.636-.177-14.182-5.3-27.866-6.445-42-.492-6.058-.249-12.148-.466-18.225a122.028,122.028,0,0,0-1.28-13.651,18.333,18.333,0,0,0-1.68-5.972c-1.969-3.675-6.057-5.67-9.93-7.219C787.4,576.487,754.308,576.606,721.861,577.807Z" transform="translate(-266.578 -259.82)" fill="#f86d70"/>
      <circle id="Ellipse_9" data-name="Ellipse 9" cx="28.221" cy="28.221" r="28.221" transform="translate(482.761 85.443)" fill="#fbbebe"/>
      <path id="Tracé_31" data-name="Tracé 31" d="M802.261,334.453c-2.094,4.594-5.388,9.188-10.291,10.356-4.509,1.083-9.287-1.089-12.607-4.325s-5.493-7.436-7.8-11.459c-1.68-2.94-3.55-5.907-6.392-7.757-3.885-2.52-8.9-2.455-13.48-1.713s-9.129,2.067-13.782,1.765c-5.8-.387-11.7-3.281-17.169-1.352,1.772,7.928,1.135,16.644.932,24.768a11.155,11.155,0,0,1-.525,3.7,11.959,11.959,0,0,1-1.91,3.071l-5.25,6.766c5.631,4.213,10.5,9.713,12.47,16.466,1.109,3.846.768,7.928.729,11.931-.125,11.754,2.428,23.462,1.621,35.19-.945,13.736-6.432,26.718-9.26,40.191a105.222,105.222,0,0,0-1.352,35.177c29.415,10.179,59.723,15.39,90.818,17.1,5.493.3,11.426.348,15.935-2.809,3.747-2.625,5.847-7.121,6.563-11.649s.223-9.136-.276-13.69q-2.028-18.475-4.049-36.949c-.768-7.009-1.536-14.058-1.037-21.087a117.393,117.393,0,0,1,2.52-15.541l6.563-31.541a64.913,64.913,0,0,1,3.741-13.178c1.523-3.413,3.629-6.563,5.309-9.884a43.651,43.651,0,0,0,4.1-12.647,8.38,8.38,0,0,0-.052-3.872c-.7-2.153-2.848-3.446-4.85-4.5a140.9,140.9,0,0,0-38.826-13.618C803.731,327.227,803.908,330.85,802.261,334.453Z" transform="translate(-266.682 -171.082)" fill="#e3e8f4"/>
      <path id="Tracé_32" data-name="Tracé 32" d="M822.958,276.649c3.281-6.287,9.418-10.7,12.981-16.84a24.893,24.893,0,0,0,.8-22.97c-1.253-2.56-2.953-4.909-3.938-7.587-1.1-3.045-1.2-6.4-2.468-9.378-1.739-4.082-5.506-7.022-9.608-8.716s-8.532-2.3-12.949-2.894l-14.911-2.008a16.4,16.4,0,0,0-6.5,0c-2.1.578-4.056,2.29-4.227,4.469-.2,2.579,2.061,4.981,1.536,7.515-.19.893-.715,1.8-.413,2.665a2.7,2.7,0,0,0,1.313,1.313c3.537,1.969,7.764,2.146,11.6,3.432s7.679,4.515,7.292,8.532c-.21,2.159-1.6,4.4-.656,6.34.906,1.792,3.281,2.12,5.178,2.678a13.877,13.877,0,0,1,9.549,14.767c-.276,1.969-.984,3.852-1.129,5.828-.479,6.917.61,8.893,6.261,12.916Z" transform="translate(-290.102 -132.18)" fill="#3f3d56"/>
      <path id="Tracé_33" data-name="Tracé 33" d="M892.046,348.446a9.574,9.574,0,0,1-.7,3.826c-2.048,4.364-8.315,4.089-12.469,6.563-5.172,3.085-6.314,9.969-6.786,15.968-.538,6.793-.906,13.684.486,20.345s4.738,13.159,10.33,17.064c6.806,4.732,16.06,4.9,23.83,2.015s14.261-8.453,19.892-14.543c5.342-5.775,10.127-12.214,12.994-19.544a6.224,6.224,0,0,0,.545-4.017c-.61-1.969-2.756-2.861-4.5-3.938-4.076-2.461-6.793-6.753-8.2-11.288s-1.647-9.359-1.693-14.117c-.053-4.942-.066-10.343-3.216-14.156s-8.611-4.883-13.585-4.843c-4.069,0-15.331.387-18.107,3.938C888.581,334.671,892.21,344.22,892.046,348.446Z" transform="translate(-320.856 -174.063)" fill="#be6f72"/>
      <path id="Tracé_34" data-name="Tracé 34" d="M892.046,348.446a9.574,9.574,0,0,1-.7,3.826c-2.048,4.364-8.315,4.089-12.469,6.563-5.172,3.085-6.314,9.969-6.786,15.968-.538,6.793-.906,13.684.486,20.345s4.738,13.159,10.33,17.064c6.806,4.732,16.06,4.9,23.83,2.015s14.261-8.453,19.892-14.543c5.342-5.775,10.127-12.214,12.994-19.544a6.224,6.224,0,0,0,.545-4.017c-.61-1.969-2.756-2.861-4.5-3.938-4.076-2.461-6.793-6.753-8.2-11.288s-1.647-9.359-1.693-14.117c-.053-4.942-.066-10.343-3.216-14.156s-8.611-4.883-13.585-4.843c-4.069,0-15.331.387-18.107,3.938C888.581,334.671,892.21,344.22,892.046,348.446Z" transform="translate(-320.856 -174.063)" opacity="0.1"/>
      <path id="Tracé_35" data-name="Tracé 35" d="M847.517,602.438a5.611,5.611,0,0,0,1.365,2.678,5.42,5.42,0,0,0,2.212,1.044c21.539,6.32,44.549,3.8,66.85,1.221-3.052-9.293-6.123-18.691-6.97-28.437-.7-8.039.085-16.407-2.763-23.948-.84-2.231-49.8,8.04-54.63,8.873-2.474.427-5.323.282-7.075,2.245-2.113,2.376-2.29,8.033-2.514,10.993C843.363,585.656,845.128,594.267,847.517,602.438Z" transform="translate(-311.321 -252.05)" fill="#be6f72"/>
      <path id="Tracé_36" data-name="Tracé 36" d="M899.488,753.1c-3.938,1.824-8,3.524-12.207,5.047q-3.413,1.24-6.97,2.323c-3.885,1.181-7.875,2.212-12.043,3.058q-3.564-9.037-7.134-18.081c-1.752-4.437-3.5-8.893-4.968-13.428a84.09,84.09,0,0,1-2.507-9.444,67.368,67.368,0,0,1,1.628-32.664c9.1,1.713,17.989,2.829,26.947,4.128,4.784.656,9.582,1.431,14.438,2.343q.571,4.745,1.037,9.49.709,7.324,1.162,14.648Q899.875,736.8,899.488,753.1Z" transform="translate(-314.247 -298.531)" fill="#be6f72"/>
      <path id="Tracé_37" data-name="Tracé 37" d="M899.488,753.1c-3.938,1.824-8,3.524-12.207,5.047q-3.413,1.24-6.97,2.323c-3.885,1.181-7.875,2.212-12.043,3.058q-3.564-9.037-7.134-18.081c-1.752-4.437-3.5-8.893-4.968-13.428a84.09,84.09,0,0,1-2.507-9.444,67.368,67.368,0,0,1,1.628-32.664c9.1,1.713,17.989,2.829,26.947,4.128,4.784.656,9.582,1.431,14.438,2.343q.571,4.745,1.037,9.49.709,7.324,1.162,14.648Q899.875,736.8,899.488,753.1Z" transform="translate(-314.247 -298.531)" opacity="0.1"/>
      <path id="Tracé_38" data-name="Tracé 38" d="M965.658,732.676c.053,3.78-1.024,7.639-2.021,11.347-.072.263-.138.518-.2.781a10.817,10.817,0,0,1-5.8-4.345,12.412,12.412,0,0,1-1.555-3.642q-4.456,3.032-8.991,6.005a246.432,246.432,0,0,1-31.9,18.291c-3.938,1.824-8,3.524-12.207,5.047q-1.313-4.594-2.494-9.247a85.641,85.641,0,0,1-2.021-9.706,49.3,49.3,0,0,1,2.179-22.084h0l.3-.853a48.268,48.268,0,0,1,4.3-9.05c1.634-2.625,4.87-2.185,8.171-1.313,1.5.387,3.012.853,4.391,1.142,8.578,1.8,17.484-.059,26.252.433a31.376,31.376,0,0,1,12.043,3.065c4.22,2.12,7.62,5.362,8.952,9.844a14.679,14.679,0,0,1,.433,1.969,17.425,17.425,0,0,1,.177,2.317Z" transform="translate(-329.948 -306.546)" fill="#be6f72"/>
      <path id="Tracé_39" data-name="Tracé 39" d="M712.677,252.241c-13.552-13.126-28.956-24.25-44.713-34.652a122.816,122.816,0,0,1-11.813-8.42c-3.938-3.281-7.37-7.134-11.551-10.087s-9.352-4.981-14.373-4.01-9.483,5.775-8.748,10.8c.656,4.423,4.633,7.455,8.309,10,6.957,4.811,13.946,9.634,21.513,13.408a67.417,67.417,0,0,1,7.633,4.069c4.712,3.176,8.145,7.876,11.708,12.292a170.917,170.917,0,0,0,48.566,41.346c.223.131,7.987-16.624,7.659-18.8C726.144,263.194,716.247,255.706,712.677,252.241Z" transform="translate(-234.857 -128.366)" fill="#be6f72"/>
      <path id="Tracé_40" data-name="Tracé 40" d="M904.853,605.448c-10.461.656-20.5,4.187-30.727,6.438s-21.349,3.124-30.846-1.313l5.775,39.437a18.3,18.3,0,0,1,.177,6.6c-.44,2.061-1.582,4-1.483,6.11.151,3.334,3.281,5.677,6.228,7.219a55.685,55.685,0,0,0,27.827,6.412c-.715,2.888-1.608,5.742-2.33,8.63,4.824,5.178,12.712,5.526,19.6,7.167,5.25,1.24,10.173,3.393,15.318,4.909a65.382,65.382,0,0,0,19.17,2.671c4.377-.046,9.017-.656,12.417-3.386,4.18-3.367,5.48-9.09,6.386-14.379a32.707,32.707,0,0,0,.656-8.926,35.382,35.382,0,0,0-2.98-9.844l-8.991-21.822c-1.634-3.938-3.281-7.935-5.25-11.734C929.366,617.34,918.694,604.589,904.853,605.448Z" transform="translate(-311.12 -269.487)" fill="#3f3d56"/>
      <path id="Tracé_41" data-name="Tracé 41" d="M880.173,364.023a9.845,9.845,0,0,1,10.3-6.281c2.625.368,4.968,1.8,7.219,3.209l12.535,7.823a54.649,54.649,0,0,1,5.966,4.108c8.643,7.167,11.977,18.947,12.929,30.137s0,22.57,2.225,33.576c-5.29,4.384-11.157,8.092-16.447,12.47a41.332,41.332,0,0,0-7.672,7.541c-1.667,2.317-2.855,4.968-4.594,7.219a17.365,17.365,0,0,1-11.5,6.392c2.868,1.667,4.476,4.9,5.25,8.125s.984,6.563,1.844,9.785c1.181,4.377,3.629,8.374,4.437,12.837.564,3.078.315,6.235.518,9.359,1.024,16.164,13.71,30.294,12.89,46.466a70.465,70.465,0,0,1-16.84-8.853c-2.336-1.674-4.594-3.485-6.806-5.29L875.71,529.093c-8.131-6.563-16.342-13.27-22.806-21.513-4.056-5.172-7.363-10.894-11.432-16.053s-9.077-9.844-15.292-12.01c-.912,1.372-2.533,2.323-3.445,3.7a2.739,2.739,0,0,0-.381.709,3.1,3.1,0,0,0,.217,1.811,37.721,37.721,0,0,1,1.313,8.131l.413,4.935a16.813,16.813,0,0,1,0,3.938c-.623,4.22-4.535,7.495-8.755,8.151a3.807,3.807,0,0,1-1.844-.059,3.946,3.946,0,0,1-2.179-2.815c-1.66-5.6.886-11.518,1.089-17.352a41.686,41.686,0,0,0-.151-4.437l-.394-5.821c-3.813-.794-6.005-4.889-7.016-8.65-2.73-10.153-5.48-20.66-3.9-31.056.42-2.783,1.155-5.6.656-8.387-.656-3.721-3.334-6.74-4.745-10.245-4.594-11.426,5.165-23.83,4.259-36.1-.381-5.152-3.649-9.628-5.618-14.406a40.684,40.684,0,0,0-3.938-7.948,44,44,0,0,0-7.35-7.475,280.69,280.69,0,0,1-23.088-22.747,17.063,17.063,0,0,1-9.943-4.555,9.146,9.146,0,0,1-3.2-6.189c-.046-2.382,1.713-4.883,4.1-5.008,1.391-.072,2.691.617,4.049.919,4.253.932,8.532-2.2,10.428-6.13s1.9-8.453,1.864-12.811A12.286,12.286,0,0,1,779.99,303.6c2.934,3.19,4.843,7.167,7.154,10.829a16.78,16.78,0,0,0,3.57,4.312c3.157,2.507,7.7,2.98,10.461,5.907,1.4,1.5,2.172,3.478,3.452,5.08,3.6,4.509,10.179,5.06,15.095,8.026s8.335,8.387,13.782,10.146c1.969.656,4.115.742,6.064,1.47,4.5,1.674,7.252,6.458,7.875,11.216s-.44,9.569-1.516,14.255L843.4,385.812c-.558,2.428-.984,5.349.807,7.081a7.3,7.3,0,0,0,2.907,1.464c4.594,1.5,9.713,2.966,14.031.847a16.6,16.6,0,0,0,5.106-4.463C872.658,383.193,876.918,373.309,880.173,364.023Z" transform="translate(-278.433 -164.32)" fill="#f7946d"/>
      <path id="Tracé_42" data-name="Tracé 42" d="M1013.523,706.234c-.906,6.005-4.213,11.912-9.628,14.661a13.783,13.783,0,0,1-10.429.722,10.816,10.816,0,0,1-5.795-4.345,12.412,12.412,0,0,1-1.555-3.642,1.131,1.131,0,0,0-.046-.2,28.879,28.879,0,0,1-.61-7.068,92.209,92.209,0,0,1,.656-11.019,59.635,59.635,0,0,1,1.811-9.109c1.221-4.259,2.98-8.361,4.594-12.469.84-2.166,1.647-4.338,2.31-6.563h0c.4-1.313.742-2.665,1.017-4.03l.1-.492c.052-.276.1-.551.144-.827.656-3.741.847-7.613,2.533-10.993,3.938-7.935,11.6-5.907,12.771,1.411a12.926,12.926,0,0,1,.151,1.713c.177,9.26-3.5,18.311-1.818,27.6a64.34,64.34,0,0,0,1.785,6.707c.591,2.028,1.122,4.082,1.529,6.163A35.028,35.028,0,0,1,1013.523,706.234Z" transform="translate(-359.982 -283.36)" fill="#be6f72"/>
      <path id="Tracé_43" data-name="Tracé 43" d="M1014.261,552.08c.177,3.793,0,7.633.761,11.354,1.779,8.794,8.532,16.578,7.784,25.517-.184,2.179-.991,4.522-2.894,5.6s-5.053.991-5.677,3.157c-.177.6-.085,1.26-.282,1.857-.413,1.273-1.969,1.818-3.281,1.785a36.048,36.048,0,0,0-3.984-.354c-4.758.4-6.5,6.766-10.743,8.952a8.113,8.113,0,0,1-8.919-1.516,11.108,11.108,0,0,1-3.2-8.768,65.1,65.1,0,0,1,1.313-7.147c.742-4.259.354-8.624-.033-12.929-.571-6.307-1.162-12.693-3.236-18.671-.978-2.822-2.277-5.519-3.124-8.381A48.737,48.737,0,0,1,977.135,540c-.256-8.88.354-18.376,5.657-25.517,3.984-5.355,9.693-9.707,14.2-14.662,2.822-3.1,3.636-4.076,6.753-1.444,2.566,2.159,5.25,5.139,5.539,8.066.787,7.5,0,14.878,1.4,22.517S1013.894,544.238,1014.261,552.08Z" transform="translate(-357.111 -232.178)" fill="#f7946d"/>
      <circle id="Ellipse_10" data-name="Ellipse 10" cx="33.471" cy="33.471" r="33.471" transform="translate(555.609 108.413)" fill="#be6f72"/>
      <path id="Tracé_44" data-name="Tracé 44" d="M944.989,348.043c.735-1.03,1.608-2.14,2.855-2.356a4.981,4.981,0,0,1,2.717.571l8.814,3.682a28.773,28.773,0,0,0,4.1-12.968c.184-2.815-.039-5.67.5-8.44.8-4.108,3.236-7.79,3.8-11.938.446-3.347-.361-6.714-.847-10.054-1.5-10.317.112-20.844-.748-31.233s-5.027-21.52-14.294-26.291a86.865,86.865,0,0,0-8.184-3.137c-6.084-2.317-11.538-6.025-17.549-8.532s-13.073-3.656-18.9-.774-9.221,10.986-5.434,16.276a19.854,19.854,0,0,0,4.817,4.227c3.551,2.54,7.173,5.677,7.994,9.969,1.47,7.724-6.563,13.782-8.827,21.336a18.139,18.139,0,0,0-.217,9.05c.978,4.476,3.367,8.7,3.281,13.283-.066,5.021-3.071,9.569-3.636,14.563-.2,1.831-.079,3.688-.308,5.513a28.45,28.45,0,0,1-2.12,6.976c-5.25,13.126-10.573,26.389-18.376,38.19a50.58,50.58,0,0,0,24.04-5.618,39.734,39.734,0,0,1-6.018,14.137,45.547,45.547,0,0,0,18.809-6.563,61.112,61.112,0,0,1-5.972,14.182c.223-.381,4.351-1.313,5.113-1.746a8.906,8.906,0,0,0,3.61-3.852c2.231-3.99,3.623-8.8,5.69-12.949a188.583,188.583,0,0,1,15.3-25.5Z" transform="translate(-325.26 -142.132)" fill="#3f3d56"/>
      <g id="Groupe_21" data-name="Groupe 21" transform="translate(238.244 150.348)">
        <g id="cocktail_1_" data-name="cocktail (1)">
          <path id="Tracé_62" data-name="Tracé 62" d="M192.536,71.858H172.163a.413.413,0,0,0-.355.627c1.071,1.763,3.756,7.228,2.554,16.209-1.258,9.408-5.7,20.706,2.077,26.188a7.438,7.438,0,0,0,1.948.95c.255.124.492.238.692.337a2.965,2.965,0,0,1,1.835,2.731l-.095.274a3.863,3.863,0,0,0,.048,2.65,2.87,2.87,0,0,1-2.437,2.325c-2.022.275-3.355.746-3.355,1.28,0,.849,3.36,1.537,7.5,1.537s7.5-.688,7.5-1.537c0-.535-1.333-1.005-3.355-1.28a2.87,2.87,0,0,1-2.437-2.325,3.863,3.863,0,0,0,.048-2.65l-.095-.274a2.965,2.965,0,0,1,1.835-2.731,6.527,6.527,0,0,0,1-.635,6.763,6.763,0,0,0,1.172-.652c7.779-5.482,3.335-16.78,2.077-26.188-1.2-8.981,1.483-14.446,2.554-16.209A.413.413,0,0,0,192.536,71.858Z" transform="translate(-167.296 -62.861)" fill="#6f6d84"/>
          <path id="Tracé_63" data-name="Tracé 63" d="M240.781,71.858H234.16s-4.457,5.73-2.971,16.837c1.258,9.408,5.7,20.706-2.077,26.188a7.662,7.662,0,0,1-2.214,1.033,12.383,12.383,0,0,0,3.68.483h.032a10.324,10.324,0,0,0,5.894-1.516c7.779-5.482,3.335-16.78,2.077-26.188-1.2-8.981,1.483-14.446,2.554-16.209A.413.413,0,0,0,240.781,71.858Z" transform="translate(-215.542 -62.861)" fill="#6f6d84"/>
          <path id="Tracé_64" data-name="Tracé 64" d="M191.8,116.387a27.878,27.878,0,0,1,1.027-12.873H174.8a27.878,27.878,0,0,1,1.027,12.873c-1.258,9.408-5.7,20.706,2.077,26.188a10.323,10.323,0,0,0,5.894,1.516h.032a10.324,10.324,0,0,0,5.894-1.516C197.5,137.093,193.061,125.795,191.8,116.387Z" transform="translate(-168.763 -90.553)" fill="#fc502a"/>
          <path id="Tracé_65" data-name="Tracé 65" d="M238.491,115.647q-.009-.084-.019-.167-.039-.359-.07-.71c0-.031,0-.062-.008-.093q-.027-.319-.047-.631c0-.049-.007-.1-.009-.146q-.021-.338-.034-.669c0-.045,0-.089,0-.133q-.011-.293-.016-.58c0-.039,0-.078,0-.116q0-.319,0-.63c0-.051,0-.1,0-.152q0-.285.011-.564c0-.023,0-.047,0-.07.006-.2.015-.4.026-.59,0-.054.006-.109.009-.163.011-.19.023-.378.038-.563,0-.033.006-.065.008-.1q.019-.238.042-.471c.006-.057.011-.114.017-.17q.027-.255.057-.5c.007-.055.014-.108.021-.162q.024-.188.051-.372c.009-.06.017-.12.026-.179q.034-.226.071-.445c.011-.067.023-.134.035-.2q.026-.148.054-.294c.016-.086.033-.171.05-.256.022-.108.044-.216.067-.322.017-.077.033-.153.05-.229s.032-.141.049-.211q.046-.2.094-.387c.013-.052.026-.1.04-.156q.033-.129.067-.256l.024-.087q.068-.247.138-.483l.021-.071q.127-.42.26-.8h-7.394a27.892,27.892,0,0,0-1.026,12.873c1.258,9.408,5.7,20.706-2.077,26.188a7.661,7.661,0,0,1-2.214,1.033,11.055,11.055,0,0,0,1.321.305l.038.006q.2.033.394.059l.1.013q.167.021.336.037l.131.012c.1.009.21.017.315.024l.143.009c.107.006.214.009.321.012l.132,0c.149,0,.3,0,.448,0h.032a10.324,10.324,0,0,0,5.894-1.516c7.779-5.482,3.335-16.78,2.077-26.188C238.548,116.138,238.518,115.892,238.491,115.647Z" transform="translate(-215.542 -90.555)" fill="#e52d15"/>
          <circle id="Ellipse_19" data-name="Ellipse 19" cx="3.08" cy="3.08" r="3.08" transform="translate(22.529 0.951)" fill="#fd9727"/>
          <path id="Tracé_66" data-name="Tracé 66" d="M291.083,42.06A17.944,17.944,0,0,0,279.5,36.316a.387.387,0,0,0-.424.414l.955,12.352a.385.385,0,0,0,.594.295l10.386-6.73A.386.386,0,0,0,291.083,42.06Z" transform="translate(-261.186 -31.767)" fill="#ffb"/>
          <path id="Tracé_67" data-name="Tracé 67" d="M144.479,12.961h1.972L143.764,2.866a.953.953,0,0,0-.583-.646L137.488.062a.953.953,0,1,0-.676,1.782l5.236,1.985Z" transform="translate(-136.197 0)" fill="#65dbef"/>
          <path id="Tracé_68" data-name="Tracé 68" d="M295.027,53.373a18.018,18.018,0,0,0-5.619-4.126l-5.824,6.084.392,5.065a.385.385,0,0,0,.594.295l10.386-6.73A.387.387,0,0,0,295.027,53.373Z" transform="translate(-265.131 -43.081)" fill="#efedab"/>
          <path id="Tracé_69" data-name="Tracé 69" d="M291.083,42.06A17.944,17.944,0,0,0,279.5,36.316a.387.387,0,0,0-.424.414l.193,2.493a17.925,17.925,0,0,1,9.724,4.732l2.018-1.307A.386.386,0,0,0,291.083,42.06Z" transform="translate(-261.186 -31.767)" fill="#fdc74f"/>
          <path id="Tracé_70" data-name="Tracé 70" d="M320.133,53.57a.389.389,0,0,0-.1-.193q-.143-.155-.289-.307l-.095-.1c-.067-.068-.133-.136-.2-.2l-.117-.114-.185-.179-.129-.12-.181-.166-.136-.121-.18-.158-.141-.12-.182-.152-.145-.118-.185-.147-.148-.115-.19-.143-.149-.11-.2-.141-.149-.105-.2-.139-.146-.1c-.073-.048-.146-.095-.219-.142l-.137-.088c-.083-.052-.167-.1-.251-.153l-.112-.068q-.183-.109-.368-.213l-.044-.024q-.164-.091-.329-.18l-.13-.067c-.083-.043-.166-.087-.25-.129l-.153-.075-.232-.112-.044-.02L312.175,51.6a17.964,17.964,0,0,1,5.774,3.677l.038-.025.207-.134.173-.112.087-.056.925-.6.006,0,.27-.175.115-.074.062-.04.135-.088A.381.381,0,0,0,320.133,53.57Z" transform="translate(-290.141 -43.084)" fill="#eab447"/>
        </g>
      </g>
      <path id="Tracé_24" data-name="Tracé 24" d="M231.838,344.446c-7.055,2.907-9.844,11.951-8.19,19.393s6.635,13.644,11.492,19.544l13.611,16.6c3.761,4.594,7.875,9.431,13.611,11.032,8.387,2.343,16.775-3,24.027-7.83A361.943,361.943,0,0,1,355.4,367.252a23.214,23.214,0,0,0,6.747-3.491,12.44,12.44,0,0,0,2.927-14.438,14.455,14.455,0,0,0-12.778-7.915,17.265,17.265,0,0,0-13.6,6.983c-1.516,2.015-2.625,4.318-4.089,6.366-3.7,5.145-9.477,8.328-15.128,11.2a386.326,386.326,0,0,1-42,18.376c-2.625.958-5.585,1.87-8.059.6a9.789,9.789,0,0,1-3.459-3.7,91.918,91.918,0,0,1-9.91-21.119c-1.792-5.578-3.242-11.656-7.547-15.62-6.1-5.618-17.155-4.272-21.73,2.625,0,0-5.362,7.843-2.08,11.124S231.838,344.446,231.838,344.446Z" transform="translate(-100.613 -170.732)" fill="#fbbebe"/>
      <g id="Groupe_17" data-name="Groupe 17" transform="translate(321.596 254.107)" opacity="0.2">
        <path id="Tracé_47" data-name="Tracé 47" d="M574.025,744.867a12.464,12.464,0,0,1-.243,2.107Q566.93,745.884,560,745v-.564a11.078,11.078,0,0,1,1.641-5.565,6.106,6.106,0,0,1,11.111.341A11.071,11.071,0,0,1,574.025,744.867Z" transform="translate(-535.35 -568.296)" fill="#3f3d56"/>
        <ellipse id="Ellipse_11" data-name="Ellipse 11" cx="9.195" cy="7.022" rx="9.195" ry="7.022" transform="translate(24.716 174.113) rotate(-88.19)" fill="#3f3d56"/>
        <ellipse id="Ellipse_12" data-name="Ellipse 12" cx="9.195" cy="7.022" rx="9.195" ry="7.022" transform="translate(25.074 162.876) rotate(-88.19)" fill="#3f3d56"/>
        <ellipse id="Ellipse_13" data-name="Ellipse 13" cx="9.195" cy="7.022" rx="9.195" ry="7.022" transform="translate(25.426 151.64) rotate(-88.19)" fill="#3f3d56"/>
        <ellipse id="Ellipse_14" data-name="Ellipse 14" cx="9.195" cy="7.022" rx="9.195" ry="7.022" transform="translate(25.784 140.404) rotate(-88.19)" fill="#3f3d56"/>
        <path id="Tracé_48" data-name="Tracé 48" d="M531.648,534.434a32.587,32.587,0,0,1-2.494-3.938l18.547-2.448-19.964-.479a33.72,33.72,0,0,1,.2-26.672l26.33,14.734L530.152,496.7a33.655,33.655,0,1,1,54.367,39.378,33.344,33.344,0,0,1,3.642,6.254l-24.342,11.682,25.812-7.764a33.694,33.694,0,0,1-6.445,31.443,33.655,33.655,0,1,1-52.871-1.667,33.655,33.655,0,0,1,1.313-41.6Z" transform="translate(-522.44 -480.747)" fill="#f7946d"/>
        <path id="Tracé_49" data-name="Tracé 49" d="M591.062,596.844a33.471,33.471,0,0,1-7.875,20.568,33.655,33.655,0,1,1-52.871-1.667C526,609.885,591.18,593.07,591.062,596.844Z" transform="translate(-522.44 -520.463)" opacity="0.1"/>
      </g>
    </g>
    <g id="cocktail" transform="matrix(0.996, 0.087, -0.087, 0.996, 2195.561, 1879.727)">
      <g id="Groupe_18" data-name="Groupe 18" transform="translate(0 0)">
        <circle id="Ellipse_15" data-name="Ellipse 15" cx="5.614" cy="5.614" r="5.614" transform="translate(0 0)" fill="#e94444"/>
      </g>
      <g id="Groupe_19" data-name="Groupe 19" transform="translate(1.129 0.245)">
        <path id="Tracé_50" data-name="Tracé 50" d="M10.1,5.369A5.615,5.615,0,0,1,0,8.748,5.617,5.617,0,0,0,7.259,3.38,5.592,5.592,0,0,0,6.128,0,5.614,5.614,0,0,1,10.1,5.369Z" transform="translate(0 0)" fill="#d83131"/>
      </g>
      <g id="Groupe_20" data-name="Groupe 20" transform="translate(5.858 5.614)">
        <path id="Tracé_51" data-name="Tracé 51" d="M43.207,1.951A1.218,1.218,0,0,0,42.233,0H1.221A1.218,1.218,0,0,0,.247,1.951L17.971,25.49a7.165,7.165,0,0,1,1.441,4.31V48.616a8.379,8.379,0,0,1-6.576,8.219q-.163.035-.332.067s-2.935.419-3.493,2.935H34.443C33.884,57.322,30.95,56.9,30.95,56.9q-.15-.029-.3-.059a8.387,8.387,0,0,1-6.612-8.227V29.8a7.165,7.165,0,0,1,1.441-4.31Z" transform="translate(0 0)" fill="#dff6fd"/>
        <path id="Tracé_52" data-name="Tracé 52" d="M43.207,1.951A1.218,1.218,0,0,0,42.233,0H1.221A1.218,1.218,0,0,0,.247,1.951L2.339,4.73l.862.631L18.174,25.2a6.78,6.78,0,0,1,1.093,1.915c.05.149-.139.683-.1.835a7.162,7.162,0,0,1,.244,1.853V48.617a8.379,8.379,0,0,1-6.576,8.219q-.163.035-.332.067s-2.935.419-3.493,2.935H34.443C33.884,57.322,30.95,56.9,30.95,56.9q-.15-.029-.3-.059a8.387,8.387,0,0,1-6.612-8.227V29.8a7.163,7.163,0,0,1,.292-2.026c.031-.107-.022-.365.015-.471A7.517,7.517,0,0,1,25.4,25.279L39.9,6.107l.442-.347Z" transform="translate(0 0)" fill="#3f3d56"/>
        <path id="Tracé_53" data-name="Tracé 53" d="M2.644,29.8V48.616a8.386,8.386,0,0,0,6.613,8.227c.1.02.2.041.295.06,0,0,2.935.419,3.494,2.934h-3c-.28-1.263-1.3-1.532-2.521-1.78a8.806,8.806,0,0,1-5.757-3.738A10.015,10.015,0,0,1,0,48.616V29.8a7.164,7.164,0,0,1,1.441-4.31L18.81,1.951A1.218,1.218,0,0,0,17.837,0h3a1.219,1.219,0,0,1,.974,1.951L4.085,25.49A7.163,7.163,0,0,0,2.644,29.8Z" transform="translate(21.398 0.001)" fill="#6f6d84"/>
        <path id="Tracé_54" data-name="Tracé 54" d="M38.116.922,23.143,20.807a7.151,7.151,0,0,0-1.2,2.457H16.828l-.054-.191a7.154,7.154,0,0,0-1.143-2.267L0,.047c5.08-.3,10.264.929,15.214,2.072,6.267,1.446,13.112,2.729,19.235.619A16.046,16.046,0,0,0,38.116.922Z" transform="translate(2.34 4.683)" fill="#e94444"/>
        <path id="Tracé_55" data-name="Tracé 55" d="M18.814,0,3.84,19.886a7.042,7.042,0,0,0-.809,1.368,7.881,7.881,0,0,0-.34.916c-.017.057-.034.116-.048.173H0a7.166,7.166,0,0,1,1.2-2.457L14.34,2.074q.406-.119.807-.258A16.078,16.078,0,0,0,18.814,0Z" transform="translate(21.643 5.604)" fill="#d83131"/>
      </g>
    </g>
    <g id="cocktail-2" data-name="cocktail" transform="matrix(0.978, 0.208, -0.208, 0.978, 2238.023, 1900.31)">
      <g id="Groupe_18-2" data-name="Groupe 18" transform="translate(0 0)">
        <circle id="Ellipse_15-2" data-name="Ellipse 15" cx="5.614" cy="5.614" r="5.614" transform="translate(0 0)" fill="#f7946d"/>
      </g>
      <g id="Groupe_19-2" data-name="Groupe 19" transform="translate(1.129 0.245)">
        <path id="Tracé_50-2" data-name="Tracé 50" d="M10.1,5.369A5.615,5.615,0,0,1,0,8.748,5.617,5.617,0,0,0,7.259,3.38,5.592,5.592,0,0,0,6.128,0,5.614,5.614,0,0,1,10.1,5.369Z" transform="translate(0 0)" fill="#f68051"/>
      </g>
      <g id="Groupe_20-2" data-name="Groupe 20" transform="translate(5.858 5.614)">
        <path id="Tracé_51-2" data-name="Tracé 51" d="M43.207,1.951A1.218,1.218,0,0,0,42.233,0H1.221A1.218,1.218,0,0,0,.247,1.951L17.971,25.49a7.165,7.165,0,0,1,1.441,4.31V48.616a8.379,8.379,0,0,1-6.576,8.219q-.163.035-.332.067s-2.935.419-3.493,2.935H34.443C33.884,57.322,30.95,56.9,30.95,56.9q-.15-.029-.3-.059a8.387,8.387,0,0,1-6.612-8.227V29.8a7.165,7.165,0,0,1,1.441-4.31Z" transform="translate(0 0)" fill="#dff6fd"/>
        <path id="Tracé_52-2" data-name="Tracé 52" d="M43.207,1.951A1.218,1.218,0,0,0,42.233,0H1.221A1.218,1.218,0,0,0,.247,1.951L2.339,4.73l.862.631L18.174,25.2a6.78,6.78,0,0,1,1.093,1.915c.05.149-.139.683-.1.835a7.162,7.162,0,0,1,.244,1.853V48.617a8.379,8.379,0,0,1-6.576,8.219q-.163.035-.332.067s-2.935.419-3.493,2.935H34.443C33.884,57.322,30.95,56.9,30.95,56.9q-.15-.029-.3-.059a8.387,8.387,0,0,1-6.612-8.227V29.8a7.163,7.163,0,0,1,.292-2.026c.031-.107-.022-.365.015-.471A7.517,7.517,0,0,1,25.4,25.279L39.9,6.107l.442-.347Z" transform="translate(0 0)" fill="#3f3d56"/>
        <path id="Tracé_53-2" data-name="Tracé 53" d="M2.644,29.8V48.616a8.386,8.386,0,0,0,6.613,8.227c.1.02.2.041.295.06,0,0,2.935.419,3.494,2.934h-3c-.28-1.263-1.3-1.532-2.521-1.78a8.806,8.806,0,0,1-5.757-3.738A10.015,10.015,0,0,1,0,48.616C0,48.606,0,29.8,0,29.8a7.164,7.164,0,0,1,1.441-4.31L18.81,1.951A1.218,1.218,0,0,0,17.837,0h3a1.219,1.219,0,0,1,.974,1.951L4.085,25.49A7.163,7.163,0,0,0,2.644,29.8Z" transform="translate(21.398 0.001)" fill="#6f6d84"/>
        <path id="Tracé_54-2" data-name="Tracé 54" d="M38.116.922,23.143,20.807a7.151,7.151,0,0,0-1.2,2.457H16.828l-.054-.191a7.154,7.154,0,0,0-1.143-2.267L0,.047c5.08-.3,10.264.929,15.214,2.072,6.267,1.446,13.112,2.729,19.235.619A16.046,16.046,0,0,0,38.116.922Z" transform="translate(2.34 4.683)" fill="#f7946d"/>
        <path id="Tracé_55-2" data-name="Tracé 55" d="M18.814,0,3.84,19.886a7.042,7.042,0,0,0-.809,1.368,7.881,7.881,0,0,0-.34.916c-.017.057-.034.116-.048.173H0a7.166,7.166,0,0,1,1.2-2.457L14.34,2.074q.406-.119.807-.258A16.078,16.078,0,0,0,18.814,0Z" transform="translate(21.643 5.604)" fill="#f68051"/>
      </g>
    </g>
    <g id="cocktail_2_" data-name="cocktail (2)" transform="matrix(0.985, -0.174, 0.174, 0.985, 2138.149, 1881.893)">
      <g id="Groupe_23" data-name="Groupe 23" transform="translate(0 0)">
        <circle id="Ellipse_20" data-name="Ellipse 20" cx="14.284" cy="14.284" r="14.284" transform="translate(0 7.754)" fill="#f5dd67"/>
        <g id="Groupe_22" data-name="Groupe 22" transform="translate(3.979 11.733)">
          <path id="Tracé_71" data-name="Tracé 71" d="M0,7.17a10.331,10.331,0,0,0,5.07-2.1L0,0Z" transform="translate(11.603 13.44)" fill="#ffb632"/>
          <path id="Tracé_72" data-name="Tracé 72" d="M0,5.07a10.332,10.332,0,0,0,5.07,2.1V0Z" transform="translate(3.936 13.44)" fill="#ffb632"/>
          <path id="Tracé_73" data-name="Tracé 73" d="M5.07,0A10.332,10.332,0,0,0,0,2.1L5.07,7.17Z" transform="translate(3.936 0)" fill="#ffb632"/>
          <path id="Tracé_74" data-name="Tracé 74" d="M0,0A10.331,10.331,0,0,0,2.1,5.07L7.17,0Z" transform="translate(0 11.603)" fill="#ffb632"/>
          <path id="Tracé_75" data-name="Tracé 75" d="M2.1,0A10.331,10.331,0,0,0,0,5.07H7.17Z" transform="translate(0 3.936)" fill="#ffb632"/>
          <path id="Tracé_76" data-name="Tracé 76" d="M5.07,5.07A10.331,10.331,0,0,0,7.17,0H0Z" transform="translate(13.44 11.603)" fill="#ffb632"/>
          <path id="Tracé_77" data-name="Tracé 77" d="M7.17,5.07A10.331,10.331,0,0,0,5.07,0L0,5.07Z" transform="translate(13.44 3.936)" fill="#ffb632"/>
          <path id="Tracé_78" data-name="Tracé 78" d="M5.07,2.1A10.331,10.331,0,0,0,0,0V7.17Z" transform="translate(11.603 0)" fill="#ffb632"/>
        </g>
        <path id="Tracé_79" data-name="Tracé 79" d="M1.3,31.128A1.3,1.3,0,0,1,.072,29.4L9.391,2.616A3.9,3.9,0,0,1,15.135.592L22.764,5.36a1.3,1.3,0,0,1-1.377,2.2L13.759,2.795a1.3,1.3,0,0,0-1.915.674L2.525,30.256A1.3,1.3,0,0,1,1.3,31.128Z" transform="translate(42.853 0)" fill="#e1e3e6"/>
        <path id="Tracé_80" data-name="Tracé 80" d="M1.3,24.673a1.3,1.3,0,0,1-1.3-1.3V1.3a1.3,1.3,0,1,1,2.6,0V23.374A1.3,1.3,0,0,1,1.3,24.673Z" transform="translate(33.763 53.204)" fill="#3f3d56"/>
        <path id="Tracé_81" data-name="Tracé 81" d="M16.881,2.6H1.3A1.3,1.3,0,0,1,1.3,0H16.881a1.3,1.3,0,1,1,0,2.6Z" transform="translate(25.971 75.279)" fill="#3f3d56"/>
        <path id="Tracé_82" data-name="Tracé 82" d="M0,0V11.818a7.792,7.792,0,0,0,4.627,7.12l4.745,2.109a5.194,5.194,0,0,1,2.93,3.487l.507,2.029a7.791,7.791,0,0,0,7.56,5.9h.819a7.791,7.791,0,0,0,7.559-5.9l.507-2.029a5.194,5.194,0,0,1,2.93-3.487l4.746-2.109a7.791,7.791,0,0,0,4.626-7.12V0Z" transform="translate(14.284 22.038)" fill="#3f3d56"/>
        <path id="Tracé_83" data-name="Tracé 83" d="M41.554,0V4.027a7.791,7.791,0,0,1-4.627,7.119l-4.745,2.109a5.2,5.2,0,0,0-2.93,3.487l-.506,2.029a7.791,7.791,0,0,1-7.559,5.9h-.818a7.791,7.791,0,0,1-7.559-5.9L12.3,16.742a5.2,5.2,0,0,0-2.93-3.487L4.628,11.147A7.791,7.791,0,0,1,0,4.027V0Z" transform="translate(14.284 29.83)" fill="#ffb632"/>
        <circle id="Ellipse_21" data-name="Ellipse 21" cx="1.299" cy="1.299" r="1.299" transform="translate(37.658 40.218)" fill="#f5dd67"/>
        <circle id="Ellipse_22" data-name="Ellipse 22" cx="1.299" cy="1.299" r="1.299" transform="translate(31.166 36.322)" fill="#f5dd67"/>
        <circle id="Ellipse_23" data-name="Ellipse 23" cx="1.299" cy="1.299" r="1.299" transform="translate(32.464 45.412)" fill="#f5dd67"/>
      </g>
    </g>
  </g>
</svg>
