<svg xmlns="http://www.w3.org/2000/svg" xmlns:xlink="http://www.w3.org/1999/xlink" width="1920" height="455.961" viewBox="0 0 1920 455.961">
  <defs>
    <linearGradient id="linear-gradient" y1="0.315" x2="1" y2="1.106" gradientUnits="objectBoundingBox">
      <stop offset="0" stop-color="#bb4e75"/>
      <stop offset="1" stop-color="#ff9d6c"/>
    </linearGradient>
  </defs>
  <path id="wave" d="M0,118.39l29.067,9.494c29.067,9.14,86.933,28.661,145.6,23.6,58-4.7,116-33.1,174.667-42.592,58-9.14,116-.266,174.667,14.2,57.867,13.931,116,33.452,174.667,23.692,57.733-9.761,116-47.029,174.667-70.987,57.6-23.958,116-32.831,173.333-33.1,58.8.266,117.333,9.14,174.667,23.6C1280,80.234,1338.667,99.756,1396,123.092c58.533,23.692,117.333,52.087,174.667,61.581,58.4,9.14,116,.266,174.667-23.692,58.267-23.958,116-61.226,145.333-80.481L1920,61.6V498.661H0Z" transform="translate(0 -42.7)" fill="url(#linear-gradient)"/>
</svg>
